<?xml version="1.0" encoding="UTF-8"?>
<svg id="logo" xmlns="http://www.w3.org/2000/svg" version="1.1" viewBox="0 0 190.7 141.4">
  <!-- Generator: Adobe Illustrator 29.5.1, SVG Export Plug-In . SVG Version: 2.1.0 Build 141)  -->
  <g>
    <path d="M84.9,70.5c-.1-1.7-.2-3.3-.3-5-.2-2-.3-4-.4-6v-.5c0-2.2,0-4.5,0-6.7,0-1-.9-1.7-1.7-1.7h-5.7c-1.2,0-2.2.2-2.5,1.7-.3,1.6-.9,3.2-1.3,4.8l-.9,3h-.3c-.2-.5-.5-1-.6-1.5-.7-2.2-1.3-4.5-2-6.8-.2-.6-.3-1.6-1.3-1.6-2.2,0-4.5,0-6.7,0s-1.1.4-1.2.8c-.4.9-.6,1.9-.6,2.8,0,2.3,0,4.5,0,6.8v4.1c0,2.3-.2,4.5-.3,6.8,0,.5-.1.9-.2,1.4v6.3c0,.4.2.9.4,1,.6.2,1.2.4,1.8.4h4c.9,0,1.1-.2,1.1-1.1,0-1.6,0-3.3,0-4.9s0-3.6,0-5.4c.1-1.5.1-3,.2-4.5,0-.3,0-.6,0-1.1,1,1.4,1.8,2.6,2.6,3.8.6,1,1.2,2.1,1.8,3.1.4.6,1.1.5,1.3-.5.7-1.1,1.3-2.2,2-3.3,1-1,1.7-2.3,2.5-3.5,0,0,.1,0,.2,0,.2,5.8.4,11.7.9,17.6.8-.1,1.6-.2,2.3-.2,1.3,0,2.5,0,3.8,0,.5,0,1-.2,1-.9v-3.3c0-1.9,0-3.9,0-5.8Z"/>
    <path d="M64.1,22c-.3.4-.7.8-.9,1.3-1.2,1.8-2.4,3.7-3.6,5.5-.4.7-.8.7-1.3,0s-.9-1.4-1.3-2.1c-.9-1.5-1.7-3-2.6-4.5,0-.1-.2-.2-.5-.3v2.2c-.2,3.1-.4,6.2-.5,9.3,0,1.5,0,3,.2,4.5,0,.6-.3,1.1-.9,1.1-1.6,0-3.3,0-4.9,0s-1.5-.3-1.5-1.6c0-.9,0-1.8,0-2.8s.2-2.7.2-4v-2.9c0-2.7,0-5.3.2-8,0-3,0-6,0-9s.7-1.8,1.8-1.8h5.7c1.3,0,1.8.4,2.3,2,.6,2.1,1.3,4.2,1.9,6.2.2.6.3,1.2.4,1.8h.3c.9-3,1.8-6,2.7-9,2.6-.8,5.3-.4,8-.4s1,.6,1.2,1.1c.3.6.2,1.3.3,2,0,1.1,0,2.3,0,3.4s0,.7,0,1.1c0,.5-.2,1.1-.2,1.6,0,1.9.2,3.8.3,5.7,0,2.8.2,5.6.3,8.4,0,1.9,0,3.8,0,5.8,0,.2-.4.7-.7.7-1.1.2-2.2.2-3.3.3h-2.1c-.9,0-1.1,0-1.1-1.1,0-1.8,0-3.6,0-5.4,0-2.8-.3-5.7-.4-8.5v-2.3c0-.2,0-.2-.1-.2Z"/>
    <path d="M154.6,48.8c0-2.4-.2-4.9-.3-7.4,0-.2-.2-.5-.4-.5-.6,0-1.2,0-1.8,0-1.4,0-2.7,0-4.1,0-1.5,0-3-.3-4.5-.3h-7.1l-1.3.2c-.4.6-.7,1.4-.7,2.1-.2,2.9-.3,5.7-.4,8.6,0,2.4-.2,4.7-.3,7.1v9.6c0,.3,0,.7-.1,1-.4.8,0,1.1.7,1.1,1.4.1,2.8.1,4.2.2,2.6.1,5.1.2,7.7.3,2.2.1,4.4.1,6.6.1s.9-.3,1-.6c.2-.4.1-.9.1-1.4.2-2.9.3-5.8.4-8.7.1-3.8.3-7.5.3-11.3ZM146,56.4c0,1-.2,2.1-.2,3.2s0,1.7.1,2.6c0,.8-.3,1.2-1,1.2-1,0-2,.1-3,.1-.7,0-1.1-.2-1-.9,0-1.6.3-3.3.4-5,.1-1.9.3-3.8.4-5.7v-2.3c0-.2.2-.5.4-.5,1.2,0,2.3,0,3.4,0,.5.1.8.3.8,1,0,2.1-.2,4.1-.3,6.2Z"/>
    <path d="M147,100.7c-.7-1.4-1.3-2.8-1.9-4.2-.4-.8-.6-1.6-.9-2.5.9,0,1.5,0,2.3.3,1,0,1.4-.5,1.4-1.5-.1-.8,0-1.5,0-2.3,0-.8.4-1.6.4-2.4.2-3.7.4-7.3.6-11,0-.8-.2-1.1-.9-1.1s-.4-.1-.6-.1c-2.4-.3-4.7-.6-7.1-.8-1.5,0-2.9,0-4.4.2-1.8,0-3.5.2-5.3.3-1.1,0-1.4.5-1.4,1.6,0,2.1,0,4.2,0,6.3,0,1.4-.2,2.8-.2,4.2v16.4c0,.8.4,1.3,1.2,1.4.8,0,1.5,0,2.3,0h2.9c.8,0,1.2-.7,1-1.4-.1-.2-.2-.4-.2-.6,0-2.2,0-4.5.2-6.7v-2.8c.6.2,1.2.3,1.3.5.5,1.3.9,2.7,1.4,4,.8,2.3,1.6,4.6,2.4,6.9,0,.1.3.3.5.3.8.1,1.7.3,2.6.3s2.2-.1,3.2-.3c.9-.2,1.1-.9.7-1.7-.5-1.1-1-2.2-1.5-3.3ZM140.9,87.5c0,0-.2.4-.4.4-1.1.1-2.2.2-3.3.3-.2,0-.5-.4-.5-.6v-5.5c1.5,0,3,.2,4.5.4-.1,1.7-.2,3.4-.3,5Z"/>
    <path d="M127.1,55.5c-.2-.5-.3-1-.4-1.6,1,0,1.9.1,2.8,0,.8,0,1-.4.7-1.3v-.8c.2-1.2.4-2.4.5-3.6.3-3.6.4-7.3.6-11,0-1,0-1.2-1.1-1.3-.9,0-1.9-.2-2.8-.3-1.7-.2-3.3-.5-5-.5s-4.7,0-7,.2c-.9,0-1.9,0-2.8.3-.3,0-.8.5-.9.9-.2.5-.1,1.1-.1,1.7,0,2.7-.2,5.4-.2,8.1v9c0,2.8-.1,5.5-.1,8.3s.5,1.8,1.7,1.8h3.7q1.8,0,1.9-1.9v-.3c.1-2.6.2-5.3.3-8,0-1.1,0-1.2,1.1-1,.3,1.1.6,2.2,1.1,3.2.5,1.3.9,2.7,1.4,4,.4,1.3.9,2.5,1.4,3.7,0,.3.6.6,1,.7.5.2,1.1,0,1.7,0,1.1,0,2.2.1,3.3,0,1-.1,1.4-1.1,1-2-1.3-2.7-2.6-5.5-3.8-8.3ZM123.5,47.5c0,0-.2.4-.4.4-1.3.1-2.5.1-3.8.2,0-2-.2-3.9-.3-5.8,1.4,0,2.7-.1,4.1,0,.2,0,.6.5.6.7,0,1.5-.1,3-.2,4.5Z"/>
    <path d="M14.6,46.1h-4.1c-1.8,0-3.7,0-5.5,0s-2.2-.5-2.2-2.1v-6.6c0-1.7,0-3.5,0-5.2s0-2,.2-2.9c0-.6.4-.9,1.1-.9,2.3-.1,4.6-.4,6.9-.5,1.6-.1,3.2,0,4.8,0h3.7c.7,0,1,.4,1.1,1,.1,1.9.1,3.8.1,5.8s-.2,1.3-1.5,1.2c-1.3-.2-2.6,0-3.9,0s-1,0-1.5,0c-1.1,0-2.1,0-3.2,0s-.5.3-.5.6c-.1.9-.1,1.8-.1,2.7s.3,1.3,1.2,1.2,1.9,0,2.8-.2h.3c1.8.2,3.6.3,5.4.6,1.2.2,1.4.7,1.4,1.9,0,2.2,0,4.3.1,6.5.1,2.5-.1,5-.2,7.5,0,.5,0,.9.1,1.4.1,1-.3,1.5-1.3,1.2-1.1-.3-2.1,0-3.1,0s-1.4,0-2.1,0c-2,0-4,0-6,0s-3.4-.2-5.1-.2-.7-.4-.7-.9v-3.9c0-.6,0-1.1,0-1.7,0-1.2.4-1.7,1.3-1.6,1.5,0,3,0,4.5.4,2,.5,3.8-.4,5.8,0,.1,0,.5-.4.5-.7,0-1.4,0-2.9,0-4.6Z"/>
    <path d="M114.5,93.8c1.7,0,3.2-.2,4.8-.3h5.5c.5,0,1.1,0,1.6.3.3.2.5.7.6,1v4.1c0,.3,0,.6,0,.9,0,.6-.4.7-.8.7-1.3,0-2.6,0-3.8,0-2.2,0-4.4,0-6.6.3-1.9.3-3.7,0-5.5,0-.6,0-1.2-.4-1.8-.7,0,0-.2-.4-.2-.7,0-1.7-.2-3.5-.2-5.2s.2-3.3.2-4.9v-12.9c0-1.6.2-3.3.3-4.9,0-.6.3-.8.9-.8,2.5,0,4.9-.3,7.4-.3s3.4.2,5.1.2c1.5,0,3,0,4.5,0s1.4,0,1.2,1.4c-.2,1.2,0,2.4,0,3.6s-.4,1.8-1.8,1.8c-3.1,0-6.3,0-9.4,0-.8,0-1,.2-1,1s0,1.7,0,2.6c0,.6.3.8.8.8,2.3,0,4.7-.2,7-.2h.2c2.4,0,2.8.5,2.8,2.7v3.2c0,.7-.3,1.1-1.2,1.1-3,0-6,0-9,0-.2,0-.6.3-.7.4-.5,1.8-.6,3.3-.7,4.9Z"/>
    <path d="M187.9,119c-.2-1.1-.5-2.1-.7-3.1-.6-2.6-1-5.2-1.6-7.7-.6-2.3-1.2-4.7-1.8-7.1-.4-1.6-.8-3.2-1.2-4.8-.4-1.7-.8-3.3-1.1-5,0-.8-.4-.9-1.1-.9-1.9,0-3.7.1-5.6,0-1,0-1.5.3-1.8,1.3-.4,1.4-.8,2.8-1.2,4.2-.7,2.1-1.5,4.3-2.2,6.4-.4,1.3-1,2.5-1.4,3.8-.5,1.5-.8,3.1-1.2,4.6-.9,3.1-1.7,6.1-2.6,9.2-.2.7,0,1,.7,1,1.9,0,3.8,0,5.7,0,1.1-.1,1.6-.8,1.7-1.9,0-.3,0-.6,0-.9.3-1.2.6-2.5,1-3.9,1.8.2,3.6.3,5.6.5.2,0,.5.4.6.6.6,1.8,1.1,3.6,1.6,5.4.2.7.6,1.1,1.4,1,1.1,0,2.3,0,3.4,0,1.9-.1,2.1-.1,1.7-2.5ZM174.2,108c.7-2.7,1.4-5.1,2.1-7.6h.3c.5,2.5,1,5,1.5,7.6h-3.9Z"/>
    <path d="M106.7,63.9c-.1-1.3-.2-1.6-1.8-1.7-1.9,0-3.8,0-5.7-.3-3.3-.5-6.7,0-10.1,0-1.4,0-1.6.4-1.7,1.7v1.5c0,1.2-.3,2.5-.3,3.7,0,1.7,0,3.3,0,5-.1,1.2-.2,2.4-.2,3.6,0,2.8,0,5.6-.2,8.4,0,1.6,0,3.3,0,4.9s.3.8.6.8c1.1.2,2.3.4,3.4.4s1.9,0,2.8-.3c.3,0,.7-.4.7-.6,0-1.2.2-2.5.2-3.7,0-2-.2-4-.3-6,.5,0,.8-.1,1.1,0,3.1-.1,6.1-.2,9.1-.3.7,0,1.2-.3,1.4-.9.3-1,.5-1.9.6-2.9.2-2.2.2-4.5.3-6.7.1-.9.1-1.8.1-2.7,0-1.3.3-2.6.2-3.9ZM99,73.7c-.1.3-.3.8-.5.8-1.2.2-2.5.3-4,.5v-6.8c1.4.1,2.8.2,4.5.3v2.8c0,.8,0,1.6,0,2.4Z"/>
    <path d="M98.3,48.2c.6,0,1.2,0,1.8.2h7.3c1.3,0,1.5.3,1.3,1.5,0,.5,0,1.1,0,1.6,0,1.4,0,2.9-.2,4.3,0,.2-.4.6-.7.6-2,.4-3.9.2-5.9,0-1.9-.2-3.7-.2-5.6-.3-1.7,0-3.4,0-5.1-.3-.8,0-1.5-.9-1.6-1.8v-4c0-1.8-.2-3.6,0-5.4,0-1.5.3-3.1.3-4.6,0-2,0-4.1,0-6.1,0-2.1.3-4.2.5-6.3,0-1.2.5-1.5,1.7-1.5,2.6-.1,5.1-.1,7.7-.2h7.7c1.1,0,1.5.2,1.5,1.4,0,1.5-.3,2.9-.4,4.4,0,.5,0,1.1,0,1.6s-.4.9-1,.7c-1.5-.5-2.9-.2-4.3,0-1.4,0-2.8,0-4.2,0h-.7c0,4.8,0,9.4,0,14.3Z"/>
    <path d="M36.1,42.8c0,1.2,0,2.4-.2,3.6v7.6c0,2.9,0,5.8,0,8.7s0,.6,0,.8c0,.9-.3,1.6-1.2,1.6-1.7,0-3.4-.2-5-.3h-.1c-.7,0-1.6,0-1.9-.5s-.1-1.3-.1-2v-1.9c0-2.1,0-4.2.1-6.3.1-3,.2-5.9.3-8.9.1-1.9-.3-2.3-2.3-2.1-.9,0-1.8,0-2.7,0s-.9-.3-.9-.8c-.2-1.3-.5-2.6-.5-4-.1-1.4.1-2.7.2-4.1,0-.6.3-1,1.2-.9.7,0,1.4,0,2.1,0,1.5,0,3.1.3,4.6.3,2.2,0,4.4,0,6.6,0s3.8,0,5.7,0,.9.4.9,1c0,2,0,4,0,5.9s0,1.5-.4,1.9c-.4.5-1.2.8-1.9.8-1.4-.1-2.7-.2-4.4-.3Z"/>
    <path d="M161.5,107.7q2.6.2,2.5,2.8c0,1.7-.2,3.4-.3,5.1,0,.7-.4.7-.9.7-2.4,0-4.8-.3-7.2-.3s-2.9.2-4.4.2-1.1-.4-1-1.3c.2-1.4.2-2.8.3-4.2,0-.6-.1-1.2.1-1.7.1-.3.5-.6.8-.9h.2q2.3-.3,2.2-2.7c-.1-2.7-.2-5.4-.3-8.1,0-.7-.1-1.5-.1-2.2-.5,0-1.1-.2-1.6-.3-.5,0-.7-.3-.7-.8.1-2.4.1-4.7.2-7.1,0-.5.3-.8.9-.8,2,0,4.1-.2,6.1-.2s3.5,0,5.3,0c1,0,1.1.4,1,1.4-.1,1.2-.1,2.5-.1,3.7s-.1,2-.2,3c-.2,1.2-.2,1.3-1.6,1.3s-.8.4-.8,1c0,2.1-.1,4.2-.1,6.3-.4,1.6-.3,3.3-.3,5.1Z"/>
    <path d="M76.6,36.6v-4.4c0-1.6,0-3.2,0-4.7,0-1.1-.2-2.1-.3-3.2,0-.2-.3-.3-.5-.5s-.3,0-.4,0c-1.4-.1-1.5-.2-1.4-1.6,0-1.6.2-3.1.3-4.7v-.6c-.2-1.9.2-1.9,1.8-2,2.4-.1,4.8-.2,7.2-.2s2.2.1,3.3.1,1,.3.9,1c-.2,2.5-.4,5.1-.6,7.6,0,.4-.2.6-.6.6h-1.7v12.5c.4,0,1,0,1.6.2.5,0,.8,0,.8.7,0,2.3,0,4.6,0,6.9,0,.6-.2.9-.9.8-.7,0-1.5-.2-2.2-.3-1.8,0-3.7-.2-5.5-.2s-2.7,0-4,.2c-.7,0-1-.2-.9-.9,0-.9.2-1.8.3-2.7v-3.3c0-.6,0-1,.9-1.1.6.1,1.3,0,2.1-.2Z"/>
    <path d="M52.6,105c-.5-.3-.9-.6-1.3-.8.2-.5.5-.9.3-1.1-.3-1-.8-2-1.2-3-.9-2-1.8-4-2.7-6-.4-.8-.9-1.1-1.7-.8-1.7.6-3.4,1.3-5,2.1s-1.1.4-1,1.2c0,.5.2,1,.4,1.5.9,2.1,1.8,4.2,2.7,6.2.2.5.6,1,.8,1.5.4,1,1,1.2,2,.7.6-.3,1.2-.6,1.8-.9.2,0,.4,0,.6,0,.7.3,1.4.6,2,1,.9.5,1.7.4,2.4-.4.5-.4.5-.8-.1-1.2ZM46.6,102.7c-.9-1.7-1.8-3.3-2.7-4.9,1.3-.8,1.5-.6,2.3,1,.3.8.6,1.6,1,2.3q.5,1-.6,1.6Z"/>
    <path d="M150.4,127c-.1-1.5-.4-3.1-.6-4.7,0-.8-.6-1.1-1.4-1-1.9.2-3.8.5-5.8.8-.5,0-.8.3-.8.9s.1,1.5.1,2.3c0,2.9.3,5.7,1,8.8,2.4-.3,4.6-.5,6.8-.8.7,0,1-.4,1-1.1-.1-1.7-.1-3.5-.3-5.2ZM146.6,130.7c-.5,0-.8,0-.9-.6-.2-1.3-.4-2.5-.6-3.8-.2-1.1.2-1.3,1.6-1.1.3,1.6.5,3.1.7,4.7,0,.7-.4.7-.8.8Z"/>
    <path d="M80,93.1c-1.7-.5-3.5-1-5.2-1.6-.6-.2-1-.2-1.2.5-.3,1-.6,1.9-.9,2.8-.7,2.4-1.5,4.7-2.1,7.1-.4,1.6-.3,1.6,1.3,1.9,0,0,.3,0,.4,0,.3,0,.8,0,.9-.2.4-.7.6-1.5.9-2.2.1-.4.3-.8.4-1.2,0,0,.2,0,.3,0,0,.5,0,1.1.1,1.6.2,1.2,0,2.7,1.6,3.2.6.2,1.3.2,1.9.3,0-.5.2-1.1,0-1.6,0-1-.3-1.9-.4-2.6.5-.4,1-.6,1.3-1.2.4-.5.6-1.2.8-1.8l.9-3.6c.2-1,0-1.3-1.1-1.6ZM76.7,97.4h-1.1c.1-2,.2-2.2,1.6-1.9-.2.6-.3,1.2-.5,1.9Z"/>
    <path d="M131.8,121.6c-1.9-.7-3.9-1.2-5.8-1.9-.5-.2-.7,0-.9.4-.2.3-.5.7-.6,1.1-.9,2.5-1.8,4.9-2.7,7.4-.7,1.7-.6,2,1.1,2.7,1.5.7,3.1,1.2,4.6,1.7,1,.4,1.3.2,1.8-.9,1-2.4,1.9-4.7,2.8-7.1.2-.7.3-1.3.5-2,0-.7-.3-1.2-.8-1.4ZM127,129.2c-1.5,0-1.7-.5-1.1-1.7.4-.9.5-1.9.8-2.8,0-.4.2-.7.4-1.2.5.3,1,.5,1.5.7-.6,1.8-1.2,3.4-1.6,5Z"/>
    <path d="M56.8,100.1c0-1.4-.2-2.7-.3-4s0-2.6-.2-4c0-.6.2-1,.9-.9h1.8c.6,0,.8.3.8.9,0,2.7,0,5.5.2,8.2,0,.7,0,1.3.2,2,0,.6,0,1.1-.8,1.1h-2.2c-1.3,0-2.7.2-4,.3-.8,0-1.2,0-1.3-1.1-.2-2.4-.6-4.7-.8-7.1,0-1-.2-1.9-.2-2.9s.3-.7.5-.7c.7,0,1.4,0,2.1,0s.8.4.9.9c.2,2.2.6,4.5.8,6.7.2,1.3,1,.4,1.6.7Z"/>
    <path d="M69.6,99.7c-.2-2.1-.5-4.1-.8-6.2,0-.7-.3-1.5-.6-2.2-.3-.5-2.9-.6-3.4-.3,0,0-.2.2-.3.3-.5,1.3-1.1,2.7-1.6,4.1-.5,1.7-.9,3.4-1.5,5.1-.6,1.9-1,2.2,1.6,2.5.6,0,1-.1,1.2-.7.2-.6.5-1.2.7-1.8.6,0,1.1,0,1.5.2,0,.2,0,.5,0,.7q0,2,2,2.2c.2,0,.5,0,.7,0,.2-.1.5-.3.5-.5,0-1.1,0-2.2-.1-3.3ZM65,97.4c.4-1.5.7-2.8,1.1-4.1h.2c.2,1.4.5,2.8.8,4.2h-2.1Z"/>
    <path d="M106.8,110.8c-.7-.5-1.4-.8-2.1-1.3-1-.8-1.1-.8-1.8.2-.6.8-1.2,1.6-1.8,2.4-.3.5-.5.9.3,1.3.8.3,1.5.8,2.3,1.2.5.3.8.6.4,1.3-.4.6-.6,1.2-1,1.8-.4.5-.8.6-1.4.2-1.4-1-2.9-1.9-4.4-2.9-.7-.5-.9-1.1-.4-1.8,1.1-1.8,2.2-3.5,3.2-5.3.7-1.1,1.4-2.3,2-3.5.3-.5.5-.4,1-.2,1.8,1.1,3.6,2.1,5.5,3.2.4.3.5.6.3,1-.4.7-.9,1.3-1.3,2-.3.1-.5.2-.8.4Z"/>
    <path d="M114.7,116.5c-.8-.5-1.6-1-2.3-1.6-.6-.5-.9-.6-1.4.2-.6,1-1.4,2-2.1,2.9-.4.5-.2.7.3,1,.8.4,1.6.8,2.4,1.2.6.3.8.7.4,1.3-.3.6-.6,1.3-1,1.8-.3.3-1,.4-1.3.2-1.6-1-3.1-2-4.6-3.1-.4-.3-.6-.7-.3-1.2,1.1-1.8,2.1-3.7,3.2-5.6.7-1.2,1.4-2.3,2-3.5.3-.5.6-.6,1.2-.2,1.7,1.1,3.5,2.1,5.3,3.1.7.4.7.7.2,1.3-.4.5-.7,1.1-1.1,1.7-.3,0-.6.2-.9.5Z"/>
    <path d="M118.1,118.4c-.8-1,0-1.9.5-2.7.6-.9.8-.9,1.8-.4,1,.6,2.1,1.2,3.1,1.9,1.2.8,1.2,1.6.2,2.6l-.3.3c-.6,1-.8,1-2,.5-.7,1.2-1.3,2.4-2,3.7,0,.2,0,.6,0,.9,0,.5,0,.9-.4,1.3-.2.4-.6.7-.9,1-.6.7-.9.8-1.6.3-1-.7-2.1-1.4-3-2.2-.3-.2-.5-.8-.4-1.1.2-.6.5-1.3.9-1.7.3-.2.9,0,1.5,0,.9-1.3,1.7-2.8,2.6-4.4Z"/>
    <path d="M91.2,107.8c.5-1.3.9-2.4,1.4-3.5,0-.2.2-.5.3-.7.2-.4.4-.8,0-1.2-.2-.3-.3-.8,0-1.2.3-.7.7-1.3,1.1-2,0-.2.5-.4.6-.3,1.5.7,3,1.5,4.5,2.3.7.3.8.7.4,1.4-.3.4-.4.9-.7,1.4-.3.5-.6.8-1.3.8s-.8.4-.9.7c-.4.8-.6,1.6-.9,2.4-.2.6-.7,1.1,0,1.7h0c0,.6-1.2,2.9-1.7,3,0,0-.3,0-.5,0-1.3-.7-2.6-1.4-3.9-2.1-.6-.3-.6-.7-.2-1.2.2-.2.3-.5.4-.8,0-.8.4-1.3,1.5-.6Z"/>
    <path d="M91.4,98.4c-.3.8-.6,1.7-1.1,2.4,0,.2-.8,0-1.1,0q-1.3-.6-1.9.6c-.8,2-1.7,3.9-2.4,5.9-.3.7-.7.8-1.3.6-.6-.2-1.2-.5-1.7-.8-.2-.2-.4-.7-.3-1,.3-.9.7-1.9,1.1-2.8.5-1.4,1.1-2.7,1.6-4.1,0,0-.2-.5-.3-.6-2.4-1.2-1.9-.9-1.1-3.1,0-.2,0-.3.2-.5.3-.6.6-1,1.4-.6,1.9.9,3.8,1.6,5.6,2.5.5.2,1.3.5,1.3,1.5Z"/>
    <path d="M136.8,130.6c1,.1,2.1.3,3.1.3,1.2.1,1.3.1,1.3,1.3s-.2,1.2-.3,1.9h-5.9c-.6,0-1.2-.1-1.8-.2-.5-.1-.7-.5-.6-1.1.1-1.1.1-2.2.1-3.3.1-1.8.3-3.6.4-5.4,0-.4.1-.8.1-1.2-.1-.7.5-1.1,1-1.1.8,0,1.6,0,2.4.2.2,0,.5.6.5.9,0,2.5-.2,5.1-.3,7.7Z"/>
  </g>
  <path d="M58.1,73.5l-.2-1.2c-.2-.9-.4-1.7-.6-2.6-.2-.8,0-1.7-.3-2.6-.4-1.7-.9-3.4-1.3-5.1-.4-1.8-.9-3.7-1.3-5.5-.2-.7-.3-1.3-.5-2-.4-1.5-.7-3-1.1-4.5-.4-1.3-.8-2.6-1.1-4-.2-.8-.2-1.6-.3-2.6h-1.3c-1.7,0-3.5,0-5.2,0-1.3,0-1.6,0-2,1.4-1,3.5-2.1,7-3.2,10.5-.6,1.7-1.2,3.5-1.7,5.3-.3,1.1-.5,2.2-.8,3.3-.9,3-1.9,6.1-2.8,9.1,0,.2.2.7.3.7,1.5,0,3,.2,4.5.2s1.1-.2,1.7-.2c1,0,1.5-.4,1.7-1.4.3-1.7.7-3.5,1.1-5.3,1.9.2,3.7.3,5.5.7.2,0,.3.4.4.6.3.7.4,1.5.6,2.2.2.8.6,1.7.8,2.5.3,1,.6,1.4,1.6,1.4,1.2,0,2.5,0,3.7,0s.8,0,1.3-.2c.3,0,.6-.4.5-.8ZM44.5,60.8c.7-2.6,1.3-4.9,1.9-7.2h.4c.4,2.4.9,4.9,1.4,7.4-1.2-.1-2.4-.1-3.7-.2Z"/>
</svg>