<svg width="18" height="19" viewBox="0 0 18 19" fill="none" xmlns="http://www.w3.org/2000/svg">
<g id="&#240;&#159;&#166;&#134; icon &#34;instagram&#34;">
<path id="Vector" d="M9.00001 13.1955C10.9637 13.1955 12.5556 11.6036 12.5556 9.63991C12.5556 7.67623 10.9637 6.08435 9.00001 6.08435C7.03633 6.08435 5.44446 7.67623 5.44446 9.63991C5.44446 11.6036 7.03633 13.1955 9.00001 13.1955Z" stroke="white" stroke-width="2" stroke-linecap="round" stroke-linejoin="round"/>
<path id="Vector_2" d="M1 13.1954V6.08434C1 3.62974 2.98985 1.63989 5.44444 1.63989H12.5556C15.0101 1.63989 17 3.62974 17 6.08434V13.1954C17 15.65 15.0101 17.6399 12.5556 17.6399H5.44444C2.98985 17.6399 1 15.65 1 13.1954Z" stroke="white" stroke-width="2"/>
<path id="Vector_3" d="M13.8889 4.76023L13.8981 4.75" stroke="white" stroke-width="2" stroke-linecap="round" stroke-linejoin="round"/>
</g>
</svg>
