<svg width="18" height="14" viewBox="0 0 18 14" fill="none" xmlns="http://www.w3.org/2000/svg">
<g id="&#240;&#159;&#166;&#134; icon &#34;youtube&#34;">
<path id="Vector" d="M10.6 7.31997L7.80005 8.91997V5.71997L10.6 7.31997Z" stroke="white" stroke-width="2" stroke-linecap="round" stroke-linejoin="round"/>
<path id="Vector_2" d="M1 7.88597V6.75389C1 4.43761 1 3.27948 1.72439 2.53431C2.44879 1.78913 3.58925 1.75688 5.87015 1.69236C6.95098 1.6618 8.05504 1.63989 9 1.63989C9.94496 1.63989 11.049 1.6618 12.1298 1.69236C14.4107 1.75688 15.5512 1.78913 16.2756 2.53431C17 3.27948 17 4.43761 17 6.75389V7.88597C17 10.2022 17 11.3604 16.2756 12.1055C15.5512 12.8507 14.4108 12.8829 12.1299 12.9475C11.049 12.9781 9.94496 13 9 13C8.05504 13 6.95094 12.9781 5.87008 12.9475C3.58921 12.8829 2.44878 12.8507 1.72438 12.1055C1 11.3604 1 10.2022 1 7.88597Z" stroke="white" stroke-width="2"/>
</g>
</svg>
